<?xml version="1.0" encoding="utf-8"?>
<!-- Generator: Adobe Illustrator 16.0.0, SVG Export Plug-In . SVG Version: 6.00 Build 0)  -->
<!DOCTYPE svg PUBLIC "-//W3C//DTD SVG 1.1 Tiny//EN" "http://www.w3.org/Graphics/SVG/1.1/DTD/svg11-tiny.dtd">
<svg version="1.1" baseProfile="tiny" id="Capa_1" xmlns="http://www.w3.org/2000/svg" xmlns:xlink="http://www.w3.org/1999/xlink"
	 x="0px" y="0px" width="660px" height="180px" viewBox="0 0 660 180" xml:space="preserve">
<g>
	<polygon fill="#FF6801" points="188.63,28.68 184.8,36.53 148.08,18.57 141.63,21.73 111.37,36.53 107.53,28.68 133.78,15.83 
		148.08,8.84 	"/>
	<path fill="#1F1375" d="M77.75,62.86c8.23-1.7,15.03-9.03,15.03-20.01c0-7.79-3.8-15.1-11.3-19.09c-3.7-1.97-8.3-3.13-13.79-3.13
		H10v3.96h11.8v79.26H10v3.98h59.11c13.99,0,22.43-7.43,24.73-17.59c0.42-1.89,0.64-3.89,0.64-5.94
		C94.48,73.31,87.02,64.28,77.75,62.86 M40.36,36.57h23.26c3.79,0,6.73,1.49,8.43,3.86c1.17,1.56,1.78,3.51,1.78,5.69
		c0,3.1-1.27,5.71-3.49,7.38c-1.7,1.3-3.99,2.02-6.71,2.02H40.36V36.57z M64.28,91.75H40.36V71.48h23.91
		c7.32,0,11.24,4.71,11.24,10.19C75.52,87.95,71.34,91.75,64.28,91.75"/>
	<path fill="#1F1375" d="M153.91,43.68c-2.14-0.38-4.4-0.57-6.76-0.57c-20.78,0-33.33,15.17-33.33,33.07
		c0,6.57,1.66,12.77,4.81,17.99c5.45,9.1,15.32,15.22,28.53,15.22c20.91,0,33.47-15.16,33.47-33.2
		C180.62,60.31,170.74,46.58,153.91,43.68 M147.15,94.62c-5.55,0-9.77-2.45-12.49-6.26c-2.34-3.28-3.58-7.57-3.58-12.17
		c0-9.8,5.75-18.29,16.08-18.29c2.65,0,5.01,0.55,7.05,1.56c5.91,2.88,9.16,9.45,9.16,16.73C163.36,86.13,157.48,94.62,147.15,94.62
		"/>
	<path fill="#1F1375" d="M262.84,103.85V20.62h-24.83v3.96h8.1v28.21c-4.97-6.41-12.03-9.68-19.48-9.68
		c-16.08,0-27.97,12.55-27.97,33.2c0,21.06,12.03,33.07,27.97,33.07c7.59,0,14.52-3.39,19.48-9.67v4.13h-0.12v3.98h24.71v-3.98
		H262.84z M246.1,87.42c-2.75,4.19-8.77,7.19-14.39,7.19c-9.41,0-15.95-7.46-15.95-18.3c0-10.98,6.54-18.42,15.95-18.42
		c5.62,0,11.64,3,14.39,7.18V87.42z"/>
	<path fill="#1F1375" d="M349.37,77.89c0-20.65-12.82-34.78-31.63-34.78c-19.22,0-32.69,14.78-32.69,33.07
		c0,20.27,14.52,33.2,33.73,33.2c9.82,0,19.75-3,26.02-8.75l-7.32-10.72c-4.05,3.92-11.5,6.28-16.86,6.28
		c-10.72,0-17.13-6.67-18.17-14.65h46.94V77.89z M302.17,70.3c0.79-6.28,5.23-13.98,15.57-13.98c10.98,0,15.16,7.96,15.55,13.98
		H302.17z"/>
	<path fill="#1F1375" d="M396.95,94.62c-3.66,0-5.75-3.01-5.75-6.93v-28.5H404V44.68h-12.81V29.93h7.91v-3.97h-24.72v3.97h0.07
		v14.75H364v14.51h10.46v32.94c0,11.24,6.28,17.26,17.91,17.26c6.93,0,11.37-1.83,13.86-4.05l-3.53-12.55
		C401.78,93.7,399.43,94.62,396.95,94.62"/>
	<path fill="#1F1375" d="M485.44,77.89c0-20.65-12.82-34.78-31.63-34.78c-19.22,0-32.69,14.78-32.69,33.07
		c0,20.27,14.52,33.2,33.73,33.2c9.81,0,19.75-3,26.02-8.75l-7.32-10.72c-4.05,3.92-11.51,6.28-16.86,6.28
		c-10.72,0-17.13-6.67-18.17-14.65h46.94V77.89z M438.24,70.3c0.79-6.28,5.23-13.98,15.57-13.98c10.98,0,15.16,7.96,15.55,13.98
		H438.24z"/>
	<polygon fill="#1F1375" points="568.18,44.68 547.79,44.68 523.87,72.79 523.87,24.59 531.99,24.59 531.99,20.63 507.27,20.63 
		507.27,20.63 507.27,107.82 523.87,107.82 523.87,91.61 531.45,83.51 548.18,107.82 568.97,107.82 543.22,73.31 	"/>
	<path fill="#1F1375" d="M641.51,103.85V67.03c0-18.17-13.19-23.92-27.58-23.92c-9.93,0-19.86,3.15-27.58,9.93l6.28,11.11
		c5.36-4.97,11.64-7.44,18.44-7.44c8.36,0,13.85,4.18,13.85,10.59v8.49c-4.18-4.97-11.64-7.71-19.99-7.71
		c-10.08,0-21.96,5.62-21.96,20.39c0,14.13,11.88,20.91,21.96,20.91c8.23,0,15.68-3,19.99-8.1v6.54H650v-3.98H641.51z M624.91,92.65
		c-2.74,3.67-7.97,5.49-13.34,5.49c-6.52,0-11.88-3.39-11.88-9.28c0-6.15,5.36-9.54,11.88-9.54c5.37,0,10.6,1.82,13.34,5.49V92.65z"
		/>
	<path fill="#FF6801" d="M340.14,154.75c2.03,1.25,5,2.29,8.13,2.29c4.64,0,7.34-2.45,7.34-5.99c0-3.28-1.88-5.16-6.62-6.98
		c-5.73-2.03-9.27-5-9.27-9.95c0-5.47,4.53-9.53,11.35-9.53c3.59,0,6.2,0.83,7.76,1.72l-1.25,3.7c-1.15-0.63-3.49-1.67-6.67-1.67
		c-4.79,0-6.61,2.86-6.61,5.26c0,3.28,2.14,4.9,6.98,6.77c5.94,2.29,8.96,5.16,8.96,10.31c0,5.42-4.01,10.1-12.29,10.1
		c-3.39,0-7.08-0.99-8.96-2.24L340.14,154.75z"/>
	<path fill="#FF6801" d="M366.29,141.89c0-2.6-0.05-4.74-0.21-6.82h4.01l0.21,4.06h0.16c1.41-2.39,3.75-4.64,7.92-4.64
		c3.44,0,6.04,2.08,7.14,5.05h0.1c0.78-1.41,1.77-2.5,2.81-3.28c1.51-1.15,3.18-1.77,5.57-1.77c3.33,0,8.28,2.19,8.28,10.94v14.84
		h-4.48V146c0-4.85-1.77-7.76-5.47-7.76c-2.6,0-4.64,1.93-5.42,4.17c-0.21,0.62-0.36,1.46-0.36,2.29v15.57h-4.48v-15.1
		c0-4.01-1.77-6.93-5.26-6.93c-2.86,0-4.95,2.29-5.68,4.59c-0.26,0.68-0.37,1.46-0.37,2.24v15.21h-4.48V141.89z"/>
	<path fill="#FF6801" d="M423.68,160.27l-0.37-3.18h-0.16c-1.41,1.98-4.12,3.75-7.71,3.75c-5.1,0-7.71-3.59-7.71-7.24
		c0-6.09,5.42-9.43,15.16-9.38v-0.52c0-2.08-0.57-5.83-5.73-5.83c-2.34,0-4.79,0.73-6.56,1.88l-1.04-3.02
		c2.08-1.35,5.1-2.24,8.28-2.24c7.71,0,9.58,5.26,9.58,10.31v9.43c0,2.19,0.1,4.32,0.42,6.04H423.68z M423,147.41
		c-5-0.1-10.68,0.78-10.68,5.68c0,2.97,1.98,4.37,4.32,4.37c3.28,0,5.36-2.08,6.09-4.22c0.16-0.47,0.26-0.99,0.26-1.46V147.41z"/>
	<path fill="#FF6801" d="M434.82,142.93c0-2.97-0.05-5.52-0.21-7.87h4.01l0.16,4.95h0.21c1.15-3.39,3.91-5.52,6.98-5.52
		c0.52,0,0.88,0.05,1.3,0.16v4.32c-0.47-0.1-0.94-0.15-1.56-0.15c-3.23,0-5.52,2.45-6.15,5.88c-0.1,0.63-0.21,1.35-0.21,2.14v13.44
		h-4.53V142.93z"/>
	<path fill="#FF6801" d="M458.63,127.82v7.24h6.56v3.49h-6.56v13.59c0,3.13,0.88,4.9,3.44,4.9c1.2,0,2.08-0.15,2.66-0.31l0.21,3.44
		c-0.89,0.36-2.29,0.62-4.06,0.62c-2.13,0-3.85-0.68-4.95-1.93c-1.3-1.35-1.77-3.59-1.77-6.56v-13.75h-3.91v-3.49h3.91v-6.04
		L458.63,127.82z"/>
	<path fill="#FF6801" d="M480.91,154.75c2.03,1.25,5,2.29,8.13,2.29c4.64,0,7.34-2.45,7.34-5.99c0-3.28-1.88-5.16-6.61-6.98
		c-5.73-2.03-9.27-5-9.27-9.95c0-5.47,4.53-9.53,11.35-9.53c3.59,0,6.2,0.83,7.76,1.72l-1.25,3.7c-1.15-0.63-3.49-1.67-6.67-1.67
		c-4.79,0-6.62,2.86-6.62,5.26c0,3.28,2.14,4.9,6.98,6.77c5.94,2.29,8.96,5.16,8.96,10.31c0,5.42-4.01,10.1-12.29,10.1
		c-3.38,0-7.08-0.99-8.96-2.24L480.91,154.75z"/>
	<path fill="#FF6801" d="M512.42,127.82v7.24h6.56v3.49h-6.56v13.59c0,3.13,0.88,4.9,3.44,4.9c1.2,0,2.08-0.15,2.66-0.31l0.21,3.44
		c-0.88,0.36-2.29,0.62-4.06,0.62c-2.13,0-3.85-0.68-4.95-1.93c-1.3-1.35-1.77-3.59-1.77-6.56v-13.75h-3.91v-3.49h3.91v-6.04
		L512.42,127.82z"/>
	<path fill="#FF6801" d="M546.64,147.46c0,9.32-6.46,13.39-12.55,13.39c-6.82,0-12.08-5-12.08-12.97c0-8.44,5.52-13.39,12.5-13.39
		C541.75,134.49,546.64,139.75,546.64,147.46 M526.64,147.72c0,5.52,3.18,9.69,7.66,9.69c4.37,0,7.65-4.11,7.65-9.79
		c0-4.27-2.13-9.69-7.55-9.69S526.64,142.93,526.64,147.72"/>
	<path fill="#FF6801" d="M552.42,142.93c0-2.97-0.05-5.52-0.21-7.87h4.01l0.16,4.95h0.21c1.15-3.39,3.91-5.52,6.98-5.52
		c0.52,0,0.88,0.05,1.3,0.16v4.32c-0.47-0.1-0.94-0.15-1.56-0.15c-3.23,0-5.52,2.45-6.15,5.88c-0.1,0.63-0.21,1.35-0.21,2.14v13.44
		h-4.53V142.93z"/>
	<path fill="#FF6801" d="M583.15,160.27l-0.36-3.18h-0.16c-1.41,1.98-4.11,3.75-7.71,3.75c-5.1,0-7.71-3.59-7.71-7.24
		c0-6.09,5.42-9.43,15.16-9.38v-0.52c0-2.08-0.57-5.83-5.73-5.83c-2.34,0-4.79,0.73-6.56,1.88l-1.04-3.02
		c2.08-1.35,5.1-2.24,8.28-2.24c7.71,0,9.58,5.26,9.58,10.31v9.43c0,2.19,0.1,4.32,0.42,6.04H583.15z M582.47,147.41
		c-5-0.1-10.68,0.78-10.68,5.68c0,2.97,1.98,4.37,4.32,4.37c3.28,0,5.36-2.08,6.09-4.22c0.16-0.47,0.26-0.99,0.26-1.46V147.41z"/>
	<path fill="#FF6801" d="M616.02,135.06c-0.11,1.82-0.21,3.86-0.21,6.93v14.64c0,5.78-1.15,9.32-3.59,11.51
		c-2.45,2.29-5.99,3.02-9.17,3.02c-3.02,0-6.35-0.73-8.39-2.08l1.15-3.49c1.67,1.04,4.27,1.98,7.4,1.98c4.69,0,8.13-2.45,8.13-8.8
		v-2.81h-0.1c-1.41,2.34-4.11,4.22-8.02,4.22c-6.25,0-10.73-5.31-10.73-12.29c0-8.54,5.57-13.39,11.35-13.39
		c4.38,0,6.77,2.29,7.87,4.38h0.1l0.21-3.8H616.02z M611.28,145.01c0-0.78-0.05-1.46-0.26-2.08c-0.83-2.66-3.07-4.84-6.41-4.84
		c-4.37,0-7.5,3.7-7.5,9.53c0,4.95,2.5,9.06,7.45,9.06c2.81,0,5.37-1.77,6.35-4.69c0.26-0.78,0.37-1.67,0.37-2.45V145.01z"/>
	<path fill="#FF6801" d="M625.96,148.5c0.1,6.2,4.06,8.75,8.65,8.75c3.28,0,5.26-0.57,6.98-1.3l0.78,3.28
		c-1.61,0.73-4.38,1.56-8.39,1.56c-7.76,0-12.4-5.1-12.4-12.71s4.48-13.6,11.82-13.6c8.23,0,10.42,7.24,10.42,11.88
		c0,0.94-0.1,1.67-0.15,2.14H625.96z M639.4,145.22c0.05-2.92-1.2-7.45-6.35-7.45c-4.64,0-6.67,4.27-7.03,7.45H639.4z"/>
</g>
</svg>
